<svg width="18" height="18" viewBox="0 0 18 18" fill="none" xmlns="http://www.w3.org/2000/svg">
<g id="clarity:grid-view-solid">
<path id="Vector" d="M7.00018 2H3.00018C2.4479 2 2.00018 2.44772 2.00018 3V7C2.00018 7.55229 2.4479 8 3.00018 8H7.00018C7.55247 8 8.00018 7.55229 8.00018 7V3C8.00018 2.44772 7.55247 2 7.00018 2Z" fill="#373737"/>
<path id="Vector_2" d="M14.8951 2H10.8951C10.3428 2 9.89508 2.44772 9.89508 3V7C9.89508 7.55229 10.3428 8 10.8951 8H14.8951C15.4474 8 15.8951 7.55229 15.8951 7V3C15.8951 2.44772 15.4474 2 14.8951 2Z" fill="#373737"/>
<path id="Vector_3" d="M7.00018 9.79999H3.00018C2.4479 9.79999 2.00018 10.2477 2.00018 10.8V14.8C2.00018 15.3523 2.4479 15.8 3.00018 15.8H7.00018C7.55247 15.8 8.00018 15.3523 8.00018 14.8V10.8C8.00018 10.2477 7.55247 9.79999 7.00018 9.79999Z" fill="#373737"/>
<path id="Vector_4" d="M14.8951 9.79999H10.8951C10.3428 9.79999 9.89508 10.2477 9.89508 10.8V14.8C9.89508 15.3523 10.3428 15.8 10.8951 15.8H14.8951C15.4474 15.8 15.8951 15.3523 15.8951 14.8V10.8C15.8951 10.2477 15.4474 9.79999 14.8951 9.79999Z" fill="#373737"/>
</g>
</svg>
