<svg width="18" height="18" viewBox="0 0 18 18" fill="none" xmlns="http://www.w3.org/2000/svg">
<g id="clarity:grid-view-solid">
<path id="Vector" d="M7 2H3C2.44772 2 2 2.44772 2 3V7C2 7.55229 2.44772 8 3 8H7C7.55229 8 8 7.55229 8 7V3C8 2.44772 7.55229 2 7 2Z" fill="#373737"/>
<path id="Vector_2" d="M14.895 2H10.895C10.3427 2 9.89502 2.44772 9.89502 3V7C9.89502 7.55229 10.3427 8 10.895 8H14.895C15.4473 8 15.895 7.55229 15.895 7V3C15.895 2.44772 15.4473 2 14.895 2Z" fill="#373737"/>
<path id="Vector_3" d="M7 9.8H3C2.44772 9.8 2 10.2477 2 10.8V14.8C2 15.3523 2.44772 15.8 3 15.8H7C7.55229 15.8 8 15.3523 8 14.8V10.8C8 10.2477 7.55229 9.8 7 9.8Z" fill="#373737"/>
<path id="Vector_4" d="M14.895 9.8H10.895C10.3427 9.8 9.89502 10.2477 9.89502 10.8V14.8C9.89502 15.3523 10.3427 15.8 10.895 15.8H14.895C15.4473 15.8 15.895 15.3523 15.895 14.8V10.8C15.895 10.2477 15.4473 9.8 14.895 9.8Z" fill="#373737"/>
</g>
</svg>
