<svg width="22" height="22" viewBox="0 0 22 22" fill="none" xmlns="http://www.w3.org/2000/svg">
<g id="ic:round-view-list">
<path id="Vector" d="M3.66667 12.8333H5.5C6.00417 12.8333 6.41667 12.4208 6.41667 11.9166V10.0833C6.41667 9.57915 6.00417 9.16665 5.5 9.16665H3.66667C3.1625 9.16665 2.75 9.57915 2.75 10.0833V11.9166C2.75 12.4208 3.1625 12.8333 3.66667 12.8333ZM3.66667 17.4166H5.5C6.00417 17.4166 6.41667 17.0041 6.41667 16.5V14.6666C6.41667 14.1625 6.00417 13.75 5.5 13.75H3.66667C3.1625 13.75 2.75 14.1625 2.75 14.6666V16.5C2.75 17.0041 3.1625 17.4166 3.66667 17.4166ZM3.66667 8.24998H5.5C6.00417 8.24998 6.41667 7.83748 6.41667 7.33331V5.49998C6.41667 4.99581 6.00417 4.58331 5.5 4.58331H3.66667C3.1625 4.58331 2.75 4.99581 2.75 5.49998V7.33331C2.75 7.83748 3.1625 8.24998 3.66667 8.24998ZM8.25 12.8333H18.3333C18.8375 12.8333 19.25 12.4208 19.25 11.9166V10.0833C19.25 9.57915 18.8375 9.16665 18.3333 9.16665H8.25C7.74583 9.16665 7.33333 9.57915 7.33333 10.0833V11.9166C7.33333 12.4208 7.74583 12.8333 8.25 12.8333ZM8.25 17.4166H18.3333C18.8375 17.4166 19.25 17.0041 19.25 16.5V14.6666C19.25 14.1625 18.8375 13.75 18.3333 13.75H8.25C7.74583 13.75 7.33333 14.1625 7.33333 14.6666V16.5C7.33333 17.0041 7.74583 17.4166 8.25 17.4166ZM7.33333 5.49998V7.33331C7.33333 7.83748 7.74583 8.24998 8.25 8.24998H18.3333C18.8375 8.24998 19.25 7.83748 19.25 7.33331V5.49998C19.25 4.99581 18.8375 4.58331 18.3333 4.58331H8.25C7.74583 4.58331 7.33333 4.99581 7.33333 5.49998Z" fill="#373737" fill-opacity="0.4"/>
</g>
</svg>
