<svg width="14" height="14" viewBox="0 0 14 14" fill="none" xmlns="http://www.w3.org/2000/svg">
<g id="bx:bxs-star">
<path id="Vector" d="M12.8023 5.35442C12.7656 5.24643 12.6981 5.15154 12.6081 5.08146C12.5182 5.01138 12.4096 4.96919 12.2959 4.96009L8.97035 4.69584L7.53127 1.51026C7.48544 1.40766 7.41089 1.32051 7.31663 1.25934C7.22237 1.19817 7.11241 1.16559 7.00004 1.16553C6.88767 1.16547 6.77768 1.19793 6.68335 1.25899C6.58902 1.32006 6.51438 1.40712 6.46844 1.50968L5.02935 4.69584L1.70377 4.96009C1.59203 4.96894 1.48522 5.0098 1.39609 5.07777C1.30697 5.14574 1.23932 5.23795 1.20122 5.34336C1.16313 5.44877 1.15622 5.56293 1.1813 5.67217C1.20639 5.78141 1.26242 5.88111 1.34269 5.95934L3.80027 8.35509L2.9311 12.1188C2.90471 12.2327 2.91317 12.3519 2.95538 12.461C2.99759 12.57 3.07161 12.6639 3.16782 12.7303C3.26403 12.7968 3.37801 12.8328 3.49494 12.8337C3.61188 12.8346 3.72639 12.8003 3.8236 12.7353L6.99985 10.6178L10.1761 12.7353C10.2755 12.8013 10.3926 12.8353 10.5119 12.8327C10.6311 12.83 10.7467 12.791 10.8431 12.7207C10.9395 12.6505 11.012 12.5524 11.051 12.4396C11.0899 12.3269 11.0934 12.205 11.061 12.0902L9.9941 8.35684L12.6401 5.97568C12.8134 5.81934 12.8769 5.57551 12.8023 5.35442Z" fill="#FF7A00"/>
</g>
</svg>
